<?xml version="1.0" standalone="no"?>
<!DOCTYPE svg PUBLIC "-//W3C//DTD SVG 20010904//EN"
 "http://www.w3.org/TR/2001/REC-SVG-20010904/DTD/svg10.dtd">
<svg version="1.0" xmlns="http://www.w3.org/2000/svg"
 width="631.000000pt" height="631.000000pt" viewBox="0 0 631.000000 631.000000"
 preserveAspectRatio="xMidYMid meet">
<metadata>
Created by potrace 1.11, written by Peter Selinger 2001-2013
</metadata>
<g transform="translate(0.000000,631.000000) scale(0.100000,-0.100000)"
fill="#000000" stroke="none">
<path d="M4360 4309 c-327 -49 -1187 -175 -1910 -280 -723 -106 -1319 -196
-1324 -200 -5 -4 7 -29 26 -56 19 -26 88 -127 154 -223 672 -989 856 -1255
873 -1258 10 -2 452 61 982 139 530 77 1339 196 1797 263 817 120 833 123 860
149 49 49 30 133 -36 158 -15 6 -278 -29 -835 -111 -1021 -150 -919 -139 -951
-107 -18 18 -26 37 -26 62 0 51 15 73 58 85 20 6 300 49 622 96 322 46 592 87
601 89 23 8 57 47 59 70 8 73 -25 115 -90 115 -23 0 -226 -27 -451 -60 -225
-33 -420 -60 -434 -60 -40 0 -75 42 -75 88 0 64 25 79 175 102 110 16 133 23
154 45 49 49 23 142 -44 159 -12 3 -299 -35 -636 -84 -337 -50 -629 -90 -649
-90 -83 0 -117 109 -48 154 15 10 272 52 742 121 395 58 726 109 735 114 59
32 71 104 25 152 -21 22 -37 29 -63 29 -20 0 -231 -29 -470 -64 -271 -40 -442
-61 -455 -56 -69 26 -83 116 -24 154 14 9 274 51 683 110 507 74 666 101 684
114 49 36 51 102 6 148 -19 19 -34 24 -72 23 -26 -1 -316 -41 -643 -90z
m-2170 -623 l40 -63 62 -7 c112 -11 232 -81 310 -180 l40 -50 -26 -7 c-15 -4
-55 -11 -90 -14 l-63 -7 -48 51 c-81 86 -187 106 -224 40 -13 -24 -12 -30 10
-75 31 -63 84 -99 174 -120 294 -67 351 -90 433 -171 99 -98 130 -218 75 -284
-15 -18 -47 -41 -70 -51 -24 -10 -43 -22 -43 -25 0 -3 14 -28 31 -55 16 -28
28 -52 25 -55 -3 -3 -25 -8 -49 -10 l-43 -5 -33 54 -33 55 -84 11 c-98 13
-169 41 -241 93 -47 35 -121 123 -116 138 1 3 40 11 85 18 l83 12 39 -46 c49
-56 104 -82 173 -83 40 0 58 5 79 23 24 21 26 28 20 61 -10 52 -78 118 -142
139 -27 9 -95 25 -151 37 -200 40 -302 94 -374 200 -88 129 -73 227 43 282
l47 23 -39 62 -40 62 28 4 c69 10 70 10 112 -57z"/>
<path d="M1001 3480 c-100 -16 -185 -31 -187 -33 -5 -4 1018 -1511 1040 -1533
8 -9 204 31 756 152 887 195 1322 290 1964 430 263 57 489 107 503 110 86 22
-62 2 -673 -91 -1930 -292 -2288 -345 -2293 -337 -119 183 -909 1331 -916
1331 -5 -1 -93 -14 -194 -29z"/>
<path d="M665 3093 c-88 -14 -161 -26 -163 -28 -3 -2 1023 -1512 1042 -1532 9
-10 350 84 1536 422 839 239 1542 439 1563 445 22 6 37 13 35 15 -2 3 -357
-74 -789 -169 -2060 -455 -2081 -460 -2090 -445 -5 8 -208 307 -452 664 l-443
650 -40 2 c-21 0 -111 -10 -199 -24z"/>
</g>
</svg>
